<?xml version="1.0" standalone="no"?>
<!DOCTYPE svg PUBLIC "-//W3C//DTD SVG 20010904//EN"
 "http://www.w3.org/TR/2001/REC-SVG-20010904/DTD/svg10.dtd">
<svg version="1.0" xmlns="http://www.w3.org/2000/svg"
 width="256.000000pt" height="256.000000pt" viewBox="0 0 256.000000 256.000000"
 preserveAspectRatio="xMidYMid meet">
<metadata>
Created by potrace 1.11, written by Peter Selinger 2001-2013
</metadata>
<g transform="translate(0.000000,256.000000) scale(0.100000,-0.100000)"
fill="#000000" stroke="none">
<path d="M1170 2372 c-14 -2 -31 -9 -39 -15 -9 -8 -12 -8 -8 -1 3 6 0 11 -8
11 -8 0 -12 -4 -10 -8 3 -4 -15 -10 -40 -13 -25 -4 -45 -11 -45 -17 0 -5 -5
-9 -11 -9 -5 0 -7 6 -3 13 4 6 -2 3 -14 -7 -12 -11 -22 -15 -22 -11 0 4 -9 0
-20 -10 -11 -10 -20 -15 -20 -11 0 8 -58 -23 -78 -41 -13 -13 -28 -17 -45 -14
-5 1 -6 -3 -2 -9 3 -5 -4 -15 -17 -20 -34 -15 -59 -32 -86 -60 -13 -14 -28
-24 -33 -22 -5 1 -9 -5 -9 -14 0 -8 -3 -14 -7 -12 -5 2 -22 -11 -40 -29 -17
-18 -30 -33 -28 -33 2 0 -8 -13 -23 -28 -15 -15 -30 -26 -35 -24 -4 2 -7 -2
-7 -8 0 -6 -5 -8 -12 -4 -13 8 -58 8 -133 -2 -27 -3 -58 -7 -67 -7 -9 -1 -14
-6 -11 -11 4 -5 -1 -7 -10 -3 -9 3 -17 2 -19 -3 -2 -5 -10 -10 -18 -12 -8 -2
-23 -12 -33 -22 -9 -10 -17 -16 -17 -12 0 5 -16 -8 -35 -27 -19 -19 -35 -38
-35 -41 0 -3 -9 -15 -20 -26 -12 -12 -18 -25 -15 -30 4 -6 2 -10 -2 -10 -9 0
-39 -69 -35 -82 1 -5 -2 -8 -7 -8 -5 0 -7 -9 -4 -21 4 -12 0 -25 -8 -30 -8 -5
-9 -9 -3 -9 6 0 11 -7 11 -15 0 -8 -5 -15 -11 -15 -6 0 -4 -5 4 -10 12 -8 12
-10 1 -10 -11 0 -11 -3 -1 -15 10 -12 10 -15 -1 -15 -11 0 -11 -2 1 -10 12 -8
13 -11 1 -19 -9 -6 -9 -10 -2 -12 6 -2 12 -23 14 -46 1 -22 5 -39 9 -36 5 2 8
-6 8 -19 0 -13 6 -35 14 -49 7 -14 16 -37 20 -52 3 -15 11 -27 16 -27 6 0 10
-11 10 -24 0 -14 5 -28 10 -31 6 -4 7 -11 4 -17 -4 -6 -3 -8 3 -5 9 6 21 -12
34 -48 2 -5 10 -18 19 -28 8 -10 15 -21 15 -25 0 -4 4 -13 9 -21 6 -10 5 -12
-2 -7 -12 7 -17 -57 -12 -149 2 -22 3 -61 4 -87 0 -27 5 -48 10 -48 4 0 6 -6
3 -14 -3 -7 0 -19 6 -25 6 -6 7 -11 3 -11 -5 0 -3 -7 4 -15 7 -8 9 -15 5 -15
-4 0 -2 -6 4 -14 6 -8 11 -18 10 -22 -4 -15 33 -94 43 -94 6 0 8 -7 4 -15 -3
-8 -1 -15 4 -15 6 0 18 -16 27 -35 9 -19 20 -32 25 -29 4 3 8 -2 8 -10 0 -9 5
-16 11 -16 5 0 8 -4 5 -8 -3 -5 6 -15 19 -22 14 -7 25 -20 25 -28 0 -9 3 -13
6 -9 9 8 52 -36 46 -47 -3 -5 0 -6 6 -2 6 3 27 -5 48 -19 20 -14 45 -25 56
-25 11 0 16 -5 13 -10 -4 -6 5 -10 20 -10 17 0 24 -4 19 -12 -4 -6 -3 -8 4 -4
6 3 28 0 50 -7 21 -8 46 -13 55 -11 10 1 17 -3 17 -9 0 -7 5 -5 10 3 6 9 10
10 10 3 0 -6 8 -12 18 -12 47 -1 78 -7 84 -16 5 -6 8 -6 8 2 0 6 9 9 20 6 11
-3 18 -8 16 -12 -3 -4 7 -8 22 -9 14 -1 31 -7 36 -12 6 -6 17 -10 25 -10 8 0
22 -7 32 -16 9 -8 26 -16 38 -17 11 -1 23 -7 25 -14 3 -7 15 -13 26 -13 14 0
19 -4 14 -12 -5 -7 -3 -8 6 -3 7 4 16 2 21 -6 6 -11 9 -11 9 -1 0 10 5 10 23
-1 14 -8 45 -12 82 -10 78 4 85 5 85 15 0 4 9 8 20 8 11 0 20 5 20 11 0 5 5 7
10 4 6 -3 10 -1 10 4 0 6 3 11 8 10 15 -2 52 14 52 22 0 5 3 8 8 7 4 -1 17 3
28 10 12 6 24 8 28 5 3 -3 6 -1 6 5 0 7 9 12 20 12 11 0 20 5 20 11 0 8 6 7
17 -2 11 -10 14 -10 9 -1 -5 8 0 12 16 13 13 0 37 3 53 6 17 2 42 5 58 6 15 1
27 5 27 8 0 3 10 5 23 5 12 -1 30 2 40 7 10 4 27 10 38 12 11 2 34 11 51 19
17 9 34 14 38 11 4 -3 11 2 14 10 3 8 9 14 13 13 11 -3 63 31 91 60 12 13 22
20 22 17 0 -3 6 0 14 7 8 7 12 16 10 20 -2 4 5 9 16 13 11 3 23 17 26 30 3 14
11 23 17 22 6 -1 11 4 12 11 0 7 7 17 15 22 8 5 11 10 6 10 -5 0 -3 6 3 13 6
8 7 18 3 22 -4 5 -2 5 5 1 7 -3 14 2 18 14 3 11 11 20 16 20 6 0 8 4 5 8 -3 5
2 21 9 36 8 16 12 32 9 37 -3 5 0 9 6 9 6 0 9 4 5 9 -3 5 -1 12 5 16 6 4 8 11
5 16 -4 5 -1 9 4 9 6 0 11 5 11 11 0 5 -5 7 -11 3 -6 -3 -4 7 3 22 8 16 16 47
17 69 6 83 6 171 0 207 -6 35 12 94 33 109 12 8 48 81 48 95 0 7 5 14 11 16 5
2 11 10 12 19 2 9 11 28 21 44 10 15 14 25 8 21 -6 -4 -8 2 -5 14 3 11 9 17
14 14 5 -3 7 5 6 18 -2 12 2 29 10 37 11 10 11 16 3 21 -8 5 -9 10 -2 14 6 3
9 14 7 24 -1 9 2 23 8 30 6 8 6 12 -2 12 -7 0 -9 5 -4 13 11 18 13 38 2 31 -5
-3 -5 6 1 20 7 18 6 26 -1 26 -7 0 -6 6 2 17 10 11 10 14 2 9 -9 -5 -13 1 -14
18 -2 34 -3 39 -12 54 -5 6 -6 12 -2 12 3 0 -6 18 -20 40 -14 22 -25 43 -25
48 0 4 -9 14 -19 22 -11 7 -18 17 -16 20 2 4 -7 13 -20 20 -14 7 -25 17 -25
22 0 4 -7 8 -15 8 -8 0 -15 5 -15 10 0 6 -7 10 -15 10 -8 0 -15 5 -15 10 0 6
-11 10 -23 10 -13 0 -27 3 -31 7 -8 9 -31 14 -76 18 -19 2 -35 4 -35 5 0 1
-10 3 -22 4 -13 2 -23 -1 -23 -6 0 -5 -9 -4 -20 2 -15 8 -20 8 -20 -2 0 -9 -3
-9 -10 2 -9 13 -10 13 -11 0 0 -9 -4 -7 -11 8 -6 12 -18 22 -26 22 -9 0 -13 3
-10 6 7 7 -79 94 -93 94 -6 0 -7 5 -4 10 3 6 0 10 -7 10 -8 0 -20 9 -28 20 -8
11 -20 20 -28 20 -7 0 -15 7 -18 15 -4 8 -10 12 -15 9 -5 -3 -9 -1 -9 3 0 5
-18 19 -40 33 -22 14 -40 27 -40 30 0 3 -10 7 -22 7 -13 1 -29 10 -36 20 -7
10 -14 16 -15 14 -1 -2 -19 2 -39 9 -20 8 -35 17 -32 21 2 4 -5 5 -16 2 -11
-3 -20 -1 -20 3 0 5 -14 10 -32 11 -17 1 -34 6 -37 10 -3 5 -15 9 -26 11 -35
5 -239 8 -265 4z"/>
</g>
</svg>
